solid pyramid
  facet normal 0 -0.707106781187 -0.707106781187
    outer loop
      vertex 0 0 0
      vertex 3 -3 3
      vertex -3 -3 3
    endloop
  endfacet
  facet normal 0.707106781187 0 -0.707106781187
    outer loop
      vertex 0 0 0
      vertex 3 3 3
      vertex 3 -3 3
    endloop
  endfacet
  facet normal 0 0.707106781187 -0.707106781187
    outer loop
      vertex 0 0 0
      vertex -3 3 3
      vertex 3 3 3
    endloop
  endfacet
  facet normal -0.707106781187 0 -0.707106781187
    outer loop
      vertex 0 0 0
      vertex -3 -3 3
      vertex -3 3 3
    endloop
  endfacet
  facet normal 0 0 1
    outer loop
      vertex -3 -3 3
      vertex 3 -3 3
      vertex 3 3 3
    endloop
  endfacet
  facet normal 0 0 1
    outer loop
      vertex -3 -3 3
      vertex 3 3 3
      vertex -3 3 3
    endloop
  endfacet
endsolid pyramid
